<svg style="display: none;" aria-hidden="true" xmlns="http://www.w3.org/2000/svg" xmlns:xlink="http://www.w3.org/1999/xlink"><symbol viewBox="0 0 41 12" id="svg-arrow"><path fill-rule="evenodd" clip-rule="evenodd" d="M5.24264 11.358L0.469669 6.585C0.176777 6.2921 0.176777 5.81723 0.469669 5.52434L5.24264 0.751365C5.53553 0.458471 6.01041 0.458471 6.3033 0.751365C6.5962 1.04426 6.5962 1.51913 6.3033 1.81203L2.81066 5.30467L40.6376 5.30467V6.80467L2.81066 6.80467L6.3033 10.2973C6.5962 10.5902 6.5962 11.0651 6.3033 11.358C6.01041 11.6509 5.53553 11.6509 5.24264 11.358Z"/></symbol><symbol viewBox="0 0 25 26" fill="none" id="svg-insta"><path d="M21.0111 0.960938H3.1835C1.43258 0.960938 0 2.39351 0 4.14444V21.9721C0 23.723 1.43258 25.1556 3.1835 25.1556H21.0111C22.7621 25.1556 24.1946 23.723 24.1946 21.9721V4.14444C24.1946 2.39351 22.7621 0.960938 21.0111 0.960938ZM22.9212 21.9721C22.9212 23.0226 22.0617 23.8822 21.0111 23.8822H3.1835C2.13295 23.8822 1.2734 23.0226 1.2734 21.9721V4.14444C1.2734 3.09389 2.13295 2.23434 3.1835 2.23434H21.0111C22.0617 2.23434 22.9212 3.09389 22.9212 4.14444V21.9721Z" fill="#FF2846"/><path d="M12.0973 5.19531C7.76776 5.19531 4.23407 8.729 4.23407 13.0586C4.23407 17.3881 7.76776 20.9218 12.0973 20.9218C16.4269 20.9218 19.9606 17.3881 19.9606 13.0586C19.9606 8.729 16.4269 5.19531 12.0973 5.19531ZM12.0973 19.6484C8.46813 19.6484 5.50747 16.6878 5.50747 13.0586C5.50747 9.42937 8.46813 6.46871 12.0973 6.46871C15.7265 6.46871 18.6872 9.42937 18.6872 13.0586C18.6872 16.6878 15.7265 19.6484 12.0973 19.6484Z" fill="#FF2846"/><path d="M12.0973 7.58301C9.07294 7.58301 6.62164 10.0343 6.62164 13.0586C6.62164 16.083 9.07294 18.5343 12.0973 18.5343C15.1216 18.5343 17.5729 16.083 17.5729 13.0586C17.5729 10.0343 15.1216 7.58301 12.0973 7.58301ZM12.0973 17.2609C9.77331 17.2609 7.89504 15.3826 7.89504 13.0586C7.89504 10.7347 9.77331 8.85641 12.0973 8.85641C14.4212 8.85641 16.2995 10.7347 16.2995 13.0586C16.2995 15.3826 14.4212 17.2609 12.0973 17.2609Z" fill="#FF2846"/></symbol><symbol viewBox="0 0 25 24" fill="none" id="svg-mailru"><path d="M18.5548 5.73235C17.0904 4.1406 15.0211 3.34473 12.4425 3.34473C10.1503 3.34473 8.17656 4.17244 6.58481 5.79602C4.96122 7.41961 4.16534 9.39338 4.16534 11.6855C4.16534 13.9776 4.99306 15.9514 6.58481 17.575C8.20839 19.1986 10.1822 20.0263 12.4425 20.0263C13.8114 20.0263 15.1166 19.7079 16.3263 19.0712L16.8994 18.7529L15.9443 17.7978L15.626 17.957C14.6391 18.4345 13.5885 18.6892 12.4743 18.6892C10.5324 18.6892 8.90876 18.0207 7.57169 16.6836C6.23462 15.3147 5.56609 13.6911 5.56609 11.7173C5.56609 9.74357 6.23462 8.15182 7.57169 6.78291C8.9406 5.414 10.5324 4.74547 12.4743 4.74547C14.6072 4.74547 16.2627 5.35033 17.4724 6.52823H16.581V8.27916C16.2627 7.92897 15.9125 7.61062 15.4986 7.32411C14.6072 6.71924 13.5567 6.40089 12.4743 6.40089C10.978 6.40089 9.70464 6.94209 8.65408 7.99264C7.60353 9.0432 7.06233 10.3484 7.06233 11.8447C7.06233 13.3409 7.60353 14.6462 8.65408 15.6967C9.70464 16.7473 11.0099 17.2885 12.4743 17.2885C13.5885 17.2885 14.6072 16.9701 15.4986 16.3653C15.9125 16.0787 16.2627 15.7604 16.581 15.4102C16.6765 16.5881 17.4087 17.2566 18.6821 17.2885C20.051 17.2566 20.7832 16.4926 20.7832 15.1555V11.6855C20.7514 9.29788 20.0192 7.29227 18.5548 5.73235ZM15.3713 14.7417C14.5436 15.5694 13.5885 15.9514 12.4425 15.9514C11.2646 15.9514 10.3095 15.5694 9.51363 14.7417C8.71775 13.9458 8.33573 12.9589 8.33573 11.781C8.33573 10.6031 8.71775 9.64806 9.51363 8.82035C10.3095 8.02448 11.2646 7.61062 12.4425 7.61062C13.5885 7.61062 14.5436 7.99264 15.3713 8.82035C16.199 9.64806 16.581 10.6031 16.581 11.7492C16.581 12.9589 16.199 13.914 15.3713 14.7417ZM19.4143 15.0919C19.4143 15.6012 19.287 15.7286 19.2552 15.7604C19.1278 15.8559 18.9368 15.9196 18.6503 15.9196C18.3956 15.9196 18.1728 15.8559 18.0454 15.7604C18.0136 15.7286 17.8862 15.5694 17.8862 15.06V6.97392C18.905 8.21549 19.4143 9.80724 19.4143 11.6855V15.0919Z" fill="#FF2846"/><path d="M12.6017 0.00195312C6.17099 0.00195312 0.918213 5.25473 0.918213 11.6854C0.918213 18.1479 6.17099 23.4007 12.6017 23.4007C19.0642 23.4007 24.317 18.1479 24.317 11.6854C24.317 5.25473 19.0642 0.00195312 12.6017 0.00195312ZM12.6017 22.1273C6.87137 22.1273 2.19161 17.4476 2.19161 11.6854C2.19161 5.92327 6.87137 1.27535 12.6017 1.27535C18.332 1.27535 23.0117 5.95511 23.0117 11.6854C23.0117 17.4157 18.3638 22.1273 12.6017 22.1273Z" fill="#FF2846"/></symbol><symbol viewBox="0 0 16 25" fill="none" id="svg-ok"><path d="M14.9678 15.8458C15.6045 15.1772 15.6682 14.2858 15.1588 13.3945C14.6813 12.6304 13.8536 12.2802 12.9622 12.5031C12.612 12.5986 12.2618 12.7578 11.9116 13.0443C9.61949 14.5724 6.40416 14.5405 4.11203 12.9488C3.95286 12.8214 3.79368 12.7259 3.63451 12.6623C2.64762 12.1847 1.6289 12.4394 1.05587 13.2671C0.387335 14.1903 0.48284 15.2091 1.31055 15.9731C1.46973 16.1004 1.59707 16.2278 1.75624 16.3551L1.85175 16.4188C2.87047 17.2147 4.0802 17.7559 5.60828 18.0424L5.32176 18.3289C4.33488 19.3158 3.34799 20.3345 2.32927 21.3214C1.91542 21.7352 1.69257 22.1809 1.66074 22.6903C1.6289 23.518 2.13826 24.3457 2.9023 24.7277C3.18882 24.8551 3.47533 24.9506 3.76185 24.9506C4.27121 24.9506 4.7169 24.7596 5.13075 24.3457C6.27682 23.2315 7.20003 22.2764 8.02774 21.4487C8.63261 22.0854 9.26931 22.7221 9.87418 23.327C10.1925 23.6453 10.5109 23.9637 10.8292 24.282C11.2431 24.6959 11.6569 24.9187 12.1663 24.9506C12.994 25.0143 13.8536 24.4731 14.2356 23.6772C14.5858 22.9131 14.4584 22.0536 13.8217 21.4487C12.994 20.621 12.1663 19.7933 11.3386 18.9656L10.479 18.1061C11.1476 17.9787 11.6888 17.8195 12.1981 17.6285C13.3124 17.1828 14.2356 16.6098 14.9678 15.8458ZM12.9622 22.3401C13.2169 22.5948 13.2487 22.8495 13.1213 23.136C12.9622 23.4543 12.612 23.709 12.2936 23.6772C12.1663 23.6772 12.0071 23.6135 11.7843 23.3907C11.4659 23.0723 11.1476 22.754 10.7974 22.4038C10.1607 21.7671 9.46032 21.0985 8.82362 20.3982C8.66444 20.239 8.40976 20.0162 8.02774 20.0162C7.61389 20.0162 7.35921 20.3027 7.23187 20.43C6.37232 21.3214 5.41727 22.2764 4.23937 23.4543C3.98469 23.709 3.73001 23.7409 3.4435 23.6135C3.12515 23.4543 2.9023 23.1042 2.9023 22.7858C2.9023 22.6585 2.93414 22.4993 3.18882 22.2446C4.1757 21.2577 5.19443 20.239 6.18131 19.2521L7.07269 18.3607C7.13636 18.2971 7.20003 18.2334 7.2637 18.1697L8.05958 17.3102L8.79178 18.1379C8.88729 18.2334 8.95096 18.2971 9.01463 18.3926L10.4472 19.8251C11.3068 20.6847 12.1345 21.5124 12.9622 22.3401ZM9.11014 16.9918L8.12325 17.1192L7.00902 16.9918C5.09892 16.8008 3.76185 16.3233 2.64762 15.4319L2.52028 15.3682C2.39294 15.2727 2.2656 15.1772 2.1701 15.0817C1.78808 14.7315 1.78808 14.445 2.07459 13.9993C2.23377 13.7765 2.42478 13.7128 2.61579 13.7128C2.77496 13.7128 2.93414 13.7765 3.06148 13.8402C3.15698 13.872 3.25249 13.9357 3.34799 14.0312C6.11764 15.9413 9.84234 15.9731 12.612 14.1267L12.6438 14.0948C12.8667 13.9357 13.0577 13.8402 13.2487 13.7765C13.5989 13.681 13.8536 13.8083 14.0446 14.0948C14.3629 14.636 14.1401 14.8907 14.0446 14.9862C13.4397 15.5911 12.6757 16.1004 11.7843 16.4506C11.0839 16.6735 10.2562 16.8645 9.11014 16.9918Z" fill="#FF2846"/><path d="M7.9959 13.1403C8.02774 13.1403 8.02774 13.1403 7.9959 13.1403C11.5296 13.1403 14.3947 10.3069 14.3947 6.83693C14.3947 5.11784 13.7262 3.46241 12.5165 2.25268C11.3704 1.07479 9.77866 0.40625 8.09141 0.40625C8.09141 0.40625 8.09141 0.40625 8.05957 0.40625C4.55772 0.40625 1.69257 3.23957 1.69257 6.77326C1.69257 8.46051 2.32927 10.0523 3.539 11.262C4.74873 12.4717 6.30865 13.1403 7.9959 13.1403ZM8.05957 1.67965C9.42848 1.67965 10.7019 2.22085 11.6569 3.1759C12.612 4.16278 13.1532 5.46802 13.1532 6.83693C13.1213 9.63841 10.8292 11.8669 8.02774 11.8669C8.02774 11.8669 8.02774 11.8669 7.9959 11.8669C6.65883 11.8669 5.38543 11.3257 4.43038 10.3706C3.47533 9.38373 2.96597 8.11033 2.96597 6.77326C2.96597 3.97177 5.25809 1.67965 8.05957 1.67965Z" fill="#FF2846"/><path d="M8.0596 10.2113C9.9697 10.2113 11.4978 8.65141 11.4978 6.77314C11.4978 4.86304 9.9697 3.33496 8.0596 3.33496C7.13638 3.33496 6.27684 3.68515 5.6083 4.35368C4.9716 5.02222 4.58958 5.88176 4.62141 6.80498C4.62141 8.68325 6.18133 10.2113 8.0596 10.2113ZM6.49968 5.24506C6.91354 4.83121 7.45473 4.60836 8.02776 4.60836C9.23749 4.60836 10.1925 5.56341 10.1925 6.77314C10.1925 7.98288 9.23749 8.93793 8.02776 8.93793C6.81803 8.93793 5.86298 7.98288 5.86298 6.80498C5.86298 6.20011 6.08583 5.65892 6.49968 5.24506Z" fill="#FF2846"/></symbol><symbol viewBox="0 0 39 24" fill="none" id="svg-vk"><path d="M32.731 13.2043C32.54 13.0133 32.3808 12.8223 32.2217 12.6631C33.2086 11.2942 36.6786 6.13694 37.3153 3.81298L37.3471 3.74931V3.68564C37.6655 2.47591 37.3153 1.68003 36.9651 1.20251C36.4239 0.502138 35.5962 0.120117 34.5138 0.120117H30.7891C29.3247 0.120117 28.1149 0.915993 27.5419 2.2849C26.8734 3.97216 25.3771 6.77364 24.0401 8.5564C24.0401 7.21933 24.0719 6.13694 24.0719 5.34106V5.02271C24.1037 3.36729 24.1674 1.80737 23.2442 0.852323C22.7667 0.374797 22.13 0.120117 21.2704 0.120117H15.4446C14.394 0.120117 13.439 0.724983 12.9933 1.61636C12.5476 2.57141 12.7386 3.71748 13.5663 4.7362C14.2667 5.62758 14.2667 6.23244 14.203 7.79236C14.1712 8.33356 14.1712 8.97026 14.1712 9.7343C13.1525 8.17438 11.8791 5.72308 10.8604 2.73059C10.3828 1.52086 9.61879 0.120117 7.48584 0.120117H3.76114C1.91471 0.120117 0.736816 1.23434 0.736816 2.95344C0.736816 4.70436 2.48774 9.86164 5.70308 14.6687C8.5364 18.9028 13.248 23.9964 19.6787 23.9964H19.7105C19.7423 23.9964 19.7423 23.9964 19.7742 23.9964C20.6337 23.9964 22.7667 23.9646 23.6262 22.5638C23.8491 22.1818 23.9764 21.8316 24.0719 18.3616C24.4539 18.6481 24.9951 19.0938 25.7273 19.7942C26.364 20.4309 26.8734 21.0039 27.3191 21.5133C28.6561 23.0095 29.5475 23.9964 31.3303 23.9964H35.0231C36.4557 23.9964 37.2198 23.3597 37.6336 22.8503C38.0156 22.341 38.3977 21.4496 37.9838 20.1125C37.3153 17.9796 34.3546 14.8597 32.731 13.2043ZM36.6149 22.0863C36.2966 22.5001 35.7554 22.723 35.0231 22.723H31.3303C30.1206 22.723 29.5475 22.0863 28.2741 20.6537C27.8284 20.1444 27.2872 19.5395 26.6187 18.871C25.3135 17.5976 24.2947 16.8335 23.6262 16.6425L22.8303 16.4197L22.7985 17.2474C22.7985 17.4384 22.7985 17.7249 22.7667 18.0432C22.703 20.5264 22.6393 21.6724 22.512 21.8634C22.0345 22.723 20.2835 22.723 19.7105 22.723H19.6787C13.821 22.723 9.42778 17.9477 6.75364 13.9684C3.6338 9.28861 2.01022 4.32234 2.01022 2.95344C2.01022 1.68003 2.96527 1.39352 3.76114 1.39352H7.45401C8.72741 1.39352 9.20494 2.06205 9.58696 3.17628C11.0195 7.41034 13.057 10.8167 14.3304 12.1856L15.5401 13.4908L15.4446 11.7081C15.3491 9.98898 15.3809 8.81108 15.4128 7.85603C15.4764 6.20061 15.5083 5.21372 14.5214 3.94032C14.012 3.30362 13.8529 2.66692 14.1075 2.15756C14.3622 1.71187 14.8716 1.39352 15.4446 1.39352H21.2704C21.7798 1.39352 22.13 1.52086 22.3528 1.7437C22.894 2.31673 22.8622 3.65381 22.8303 4.99088V5.30923C22.7985 6.39162 22.7667 8.07888 22.8303 10.2118L22.8622 11.5807L23.8809 10.6894C25.6955 9.0976 27.9876 4.76803 28.7516 2.79426C29.1018 1.87104 29.834 1.39352 30.7891 1.39352H34.482C35.1823 1.39352 35.628 1.58453 35.9145 1.96655C36.1692 2.31673 36.2329 2.79426 36.0737 3.36729L36.0419 3.49463C35.5007 5.50024 32.1262 10.6575 31.0438 12.0901L30.2797 13.1088H30.8846C30.9801 13.268 31.2029 13.4908 31.776 14.0957C33.2086 15.5601 36.1374 18.6481 36.7422 20.4627C36.9651 21.1312 36.9333 21.6724 36.6149 22.0863Z" fill="#FF2846"/></symbol></svg>